<?xml version="1.0" encoding="UTF-8"?>
<svg width="512px" height="512px" viewBox="0 0 512 512" version="1.1" xmlns="http://www.w3.org/2000/svg" xmlns:xlink="http://www.w3.org/1999/xlink">
    <!-- Generator: Sketch 59.1 (86144) - https://sketch.com -->
    <title>house</title>
    <desc>Created with Sketch.</desc>
    <g id="Page-1" stroke="none" stroke-width="1" fill="none" fill-rule="evenodd">
        <g id="Artboard" transform="translate(-1807.000000, -381.000000)" fill="#252525" fill-rule="nonzero">
            <g id="house" transform="translate(1807.000000, 381.000000)">
                <path d="M511.864,221.487 C510.943,209.499 505.409,198.591 496.283,190.771 L451.997,152.811 L451.997,44.944 C451.997,36.66 445.281,29.945 436.998,29.945 L377,29.945 C368.716,29.945 362.201,36.661 362.201,44.944 L362.201,75.672 L286.29,10.977 C269.32,-3.562 244.687,-3.56 227.771,10.934 L15.728,190.769 C-3.025,206.837 -5.458,235.192 10.862,254.242 C23.301,268.707 43.226,273.319 60.212,267.349 L60.212,496.933 C60.212,505.217 66.728,511.932 75.011,511.932 L436.997,511.932 C445.281,511.932 451.996,505.216 451.996,496.933 L451.996,267.352 C469.53,273.552 489.035,268.356 501.163,254.222 C508.983,245.094 512.784,233.468 511.864,221.487 Z M391.999,59.943 L422.198,59.943 L422.198,127.097 L391.999,101.384 L391.999,59.943 Z M317.202,481.934 L195.007,481.934 L195.007,361.738 L317.202,361.738 L317.202,481.934 Z M422.199,481.934 L347.001,481.934 L347.001,346.939 C347.001,338.655 340.285,331.94 332.002,331.94 L180.007,331.94 C171.723,331.94 165.208,338.656 165.208,346.939 L165.208,481.934 L90.011,481.934 L90.011,245.775 L256.954,104.162 L422.199,245.635 L422.199,481.934 L422.199,481.934 Z M478.389,234.694 C473.071,240.892 463.617,241.801 457.231,236.325 L266.765,73.061 C261.17,68.264 252.92,68.244 247.301,73.011 C243.242,76.453 55.58,235.643 54.786,236.317 C48.504,241.692 39.004,240.959 33.625,234.702 C28.24,228.417 28.968,218.928 35.194,213.592 L247.238,33.756 C252.898,28.908 261.112,28.907 266.768,33.754 L476.762,213.549 C483.04,218.929 483.767,228.419 478.389,234.694 Z" id="Shape"></path>
                <path d="M302.002,179.938 L210.006,179.938 C201.722,179.938 195.207,186.654 195.207,194.937 L195.207,284.933 C195.207,293.217 201.723,299.932 210.006,299.932 L302.002,299.932 C310.286,299.932 317.001,293.216 317.001,284.933 L317.001,194.937 C317.001,186.653 310.286,179.938 302.002,179.938 Z M287.203,269.935 L225.005,269.935 L225.005,209.937 L287.203,209.937 L287.203,269.935 Z" id="Shape"></path>
                <circle id="Oval" cx="271.999" cy="406.934" r="14.999"></circle>
            </g>
        </g>
    </g>
</svg>