<?xml version="1.0" encoding="UTF-8"?>
<svg width="561px" height="468px" viewBox="0 0 561 468" version="1.1" xmlns="http://www.w3.org/2000/svg" xmlns:xlink="http://www.w3.org/1999/xlink">
    <!-- Generator: Sketch 59.1 (86144) - https://sketch.com -->
    <title>logout</title>
    <desc>Created with Sketch.</desc>
    <g id="Page-1" stroke="none" stroke-width="1" fill="none" fill-rule="evenodd">
        <g id="Artboard" transform="translate(-1042.000000, -957.000000)" fill="#252525" fill-rule="nonzero">
            <g id="logout" transform="translate(1042.000000, 957.000000)">
                <path d="M554.453,221.379581 L499.672,182.758581 C489.746,175.761581 476.028,182.886581 476.028,195.018581 L476.028,218.639581 L213,218.639581 C204.716,218.639581 198,225.355581 198,233.639581 C198,241.923581 204.716,248.639581 213,248.639581 L476.028,248.639581 L476.028,272.259581 C476.028,284.471581 489.819,291.462581 499.671,284.519581 L554.452,245.899581 C562.916,239.934581 562.909,227.352581 554.453,221.379581 Z" id="Path"></path>
                <path d="M204.406,0.407 C118.251,0.407 42.5820002,47.164 2.07300021,117.19 C-2.07499979,124.361 0.375000205,133.537 7.54600021,137.685 C14.7180002,141.833 23.8930002,139.381 28.0410002,132.211 C63.2780002,71.301 129.135,30.407 204.406,30.407 C316.668,30.407 408,121.738 408,234.001 C408,346.264 316.668,437.595 204.406,437.595 C129.089,437.595 63.2530002,396.661 28.0400002,335.788 C23.8920002,328.617 14.7170002,326.168 7.54500021,330.314 C0.374000205,334.462 -2.07699979,343.638 2.07200021,350.809 C42.5910002,420.856 118.273,467.594 204.406,467.594 C333.514,467.594 438,363.119 438,234.001 C438,104.892 333.525,0.407 204.406,0.407 Z" id="Path" transform="translate(219.026574, 234.000500) scale(-1, 1) translate(-219.026574, -234.000500) "></path>
            </g>
        </g>
    </g>
</svg>